<svg xmlns="http://www.w3.org/2000/svg" width="31" height="36" viewBox="0 0 31 36">
    <g fill="#FFF" fill-rule="evenodd">
        <path d="M22.798 16.835a9.112 9.112 0 0 0-9.674 13.087H2.85A2.858 2.858 0 0 1 0 27.072V12.824a2.858 2.858 0 0 1 2.85-2.85h1.425v-2.85A7.127 7.127 0 0 1 11.399 0a7.127 7.127 0 0 1 7.124 7.124v2.85h1.425a2.858 2.858 0 0 1 2.85 2.85v4.01zm-6.982-6.861v-2.85a4.42 4.42 0 0 0-4.417-4.417 4.42 4.42 0 0 0-4.417 4.417v2.85h8.834z"/>
        <path d="M22.173 35.032a8.201 8.201 0 1 1 0-16.402 8.201 8.201 0 0 1 0 16.402zm-2.243-2.855l8.014-8.816-1.362-1.238-6.716 7.387-2.263-2.263-1.302 1.302 3.629 3.628z"/>
    </g>
</svg>
