<svg xmlns="http://www.w3.org/2000/svg" width="65" height="77" viewBox="0 0 65 77">
    <g fill="#1A1F71" fill-rule="evenodd">
        <path d="M48.762 36.008a19.62 19.62 0 0 0-3.285-.276c-10.764 0-19.49 8.726-19.49 19.49 0 3.158.75 6.14 2.084 8.778H6.095C2.743 64 0 61.257 0 57.905V27.429c0-3.353 2.743-6.096 6.095-6.096h3.048v-6.095C9.143 6.827 15.97 0 24.38 0s15.238 6.827 15.238 15.238v6.095h3.048c3.352 0 6.095 2.743 6.095 6.096v8.579zM33.829 21.333v-6.095c0-5.211-4.237-9.448-9.448-9.448s-9.448 4.237-9.448 9.448v6.095H33.83z"/>
        <path d="M47.426 74.93c-9.687 0-17.54-7.854-17.54-17.542 0-9.688 7.853-17.541 17.54-17.541 9.688 0 17.542 7.853 17.542 17.541s-7.854 17.541-17.542 17.541zm-4.799-6.107L59.77 49.966l-2.914-2.648-14.364 15.8-4.84-4.84-2.786 2.785 7.761 7.76z"/>
    </g>
</svg>
