<svg xmlns="http://www.w3.org/2000/svg" width="73" height="74" viewBox="0 0 73 74">
    <g fill="none" fill-rule="evenodd">
        <g fill="#1A1F71">
            <path d="M24.43 8.926V0H2.584A2.589 2.589 0 0 0 0 2.592v22.17h9.197V11.519a2.589 2.589 0 0 1 2.585-2.592H24.43zM48.57 8.926V0h21.845A2.589 2.589 0 0 1 73 2.592v22.17h-9.197V11.519a2.589 2.589 0 0 0-2.585-2.592H48.57zM24.43 65.074V74H2.584A2.589 2.589 0 0 1 0 71.408v-22.17h9.197v13.244a2.589 2.589 0 0 0 2.585 2.592H24.43zM48.57 65.074V74h21.845A2.589 2.589 0 0 0 73 71.408v-22.17h-9.197v13.244a2.589 2.589 0 0 1-2.585 2.592H48.57z"/>
        </g>
        <path fill="#1A1F71" d="M12.498 12.126h-.018l-1.042.556-.157-.61 1.309-.693h.691v5.925h-.783zM16.204 14.369c0 1.54.48 2.416 1.218 2.416.82 0 1.216-.958 1.216-2.47 0-1.46-.368-2.417-1.216-2.417-.701 0-1.218.857-1.218 2.471m3.255-.092c0 2.015-.765 3.127-2.084 3.127-1.171 0-1.973-1.085-1.992-3.045 0-1.995.876-3.08 2.094-3.08 1.254 0 1.982 1.11 1.982 2.998M21.958 12.126h-.019l-1.042.556-.157-.61 1.31-.693h.691v5.925h-.783zM26.688 12.126h-.019l-1.043.556-.156-.61 1.31-.693h.69v5.925h-.782zM31.417 12.126h-.019l-1.041.556-.157-.61 1.309-.693h.692v5.925h-.784zM36.146 12.126h-.018l-1.042.556-.157-.61 1.31-.693h.691v5.925h-.784zM39.852 14.369c0 1.54.48 2.416 1.217 2.416.821 0 1.218-.958 1.218-2.47 0-1.46-.369-2.417-1.218-2.417-.7 0-1.217.857-1.217 2.471m3.256-.092c0 2.015-.765 3.127-2.084 3.127-1.172 0-1.974-1.085-1.992-3.045 0-1.995.876-3.08 2.093-3.08 1.254 0 1.983 1.11 1.983 2.998M44.581 14.369c0 1.54.48 2.416 1.218 2.416.82 0 1.217-.958 1.217-2.47 0-1.46-.368-2.417-1.217-2.417-.701 0-1.218.857-1.218 2.471m3.257-.092c0 2.015-.766 3.127-2.085 3.127-1.172 0-1.973-1.085-1.992-3.045 0-1.995.876-3.08 2.094-3.08 1.254 0 1.983 1.11 1.983 2.998M49.312 14.369c0 1.54.48 2.416 1.218 2.416.82 0 1.217-.958 1.217-2.47 0-1.46-.369-2.417-1.217-2.417-.701 0-1.218.857-1.218 2.471m3.256-.092c0 2.015-.765 3.127-2.085 3.127-1.171 0-1.973-1.085-1.991-3.045 0-1.995.875-3.08 2.093-3.08 1.254 0 1.983 1.11 1.983 2.998M54.041 14.369c0 1.54.481 2.416 1.218 2.416.82 0 1.217-.958 1.217-2.47 0-1.46-.369-2.417-1.217-2.417-.701 0-1.218.857-1.218 2.471m3.256-.092c0 2.015-.765 3.127-2.085 3.127-1.17 0-1.972-1.085-1.99-3.045 0-1.995.875-3.08 2.092-3.08 1.254 0 1.983 1.11 1.983 2.998M58.771 14.369c0 1.54.48 2.416 1.217 2.416.82 0 1.217-.958 1.217-2.47 0-1.46-.369-2.417-1.217-2.417-.7 0-1.217.857-1.217 2.471m3.255-.092c0 2.015-.765 3.127-2.085 3.127-1.17 0-1.972-1.085-1.99-3.045 0-1.995.875-3.08 2.093-3.08 1.253 0 1.982 1.11 1.982 2.998M12.498 21.457h-.018l-1.042.557-.157-.61 1.309-.695h.691v5.927h-.783zM16.204 23.701c0 1.54.48 2.414 1.218 2.414.82 0 1.216-.956 1.216-2.469 0-1.458-.368-2.416-1.216-2.416-.701 0-1.218.856-1.218 2.471m3.255-.092c0 2.016-.765 3.127-2.084 3.127-1.171 0-1.973-1.085-1.992-3.045 0-1.998.876-3.082 2.094-3.082 1.254 0 1.982 1.113 1.982 3M20.934 23.701c0 1.54.48 2.414 1.217 2.414.821 0 1.217-.956 1.217-2.469 0-1.458-.368-2.416-1.217-2.416-.7 0-1.217.856-1.217 2.471m3.256-.092c0 2.016-.767 3.127-2.085 3.127-1.171 0-1.973-1.085-1.991-3.045 0-1.998.875-3.082 2.092-3.082 1.255 0 1.984 1.113 1.984 3M25.663 23.701c0 1.54.48 2.414 1.218 2.414.82 0 1.216-.956 1.216-2.469 0-1.458-.368-2.416-1.216-2.416-.701 0-1.218.856-1.218 2.471m3.256-.092c0 2.016-.765 3.127-2.085 3.127-1.17 0-1.972-1.085-1.99-3.045 0-1.998.874-3.082 2.092-3.082 1.254 0 1.983 1.113 1.983 3M31.417 21.457h-.019l-1.041.557-.157-.61 1.309-.695h.692v5.927h-.784zM36.146 21.457h-.018l-1.042.557-.157-.61 1.31-.695h.691v5.927h-.784zM40.877 21.457h-.02l-1.041.557-.157-.61 1.31-.695h.69v5.927h-.782zM54.041 23.701c0 1.54.481 2.414 1.218 2.414.82 0 1.217-.956 1.217-2.469 0-1.458-.369-2.416-1.217-2.416-.701 0-1.218.856-1.218 2.471m3.256-.092c0 2.016-.765 3.127-2.085 3.127-1.17 0-1.972-1.085-1.99-3.045 0-1.998.875-3.082 2.092-3.082 1.254 0 1.983 1.113 1.983 3M59.794 21.457h-.018l-1.041.557-.158-.61 1.31-.695h.692v5.927h-.785zM12.498 30.789h-.018l-1.042.557-.157-.61 1.309-.693h.691v5.925h-.783zM16.204 33.033c0 1.54.48 2.414 1.218 2.414.82 0 1.216-.955 1.216-2.469 0-1.458-.368-2.416-1.216-2.416-.701 0-1.218.856-1.218 2.47m3.255-.09c0 2.015-.765 3.126-2.084 3.126-1.171 0-1.973-1.084-1.992-3.045 0-1.997.876-3.082 2.094-3.082 1.254 0 1.982 1.113 1.982 3M20.934 33.033c0 1.54.48 2.414 1.217 2.414.821 0 1.217-.955 1.217-2.469 0-1.458-.368-2.416-1.217-2.416-.7 0-1.217.856-1.217 2.47m3.256-.09c0 2.015-.767 3.126-2.085 3.126-1.171 0-1.973-1.084-1.991-3.045 0-1.997.875-3.082 2.092-3.082 1.255 0 1.984 1.113 1.984 3M25.663 33.033c0 1.54.48 2.414 1.218 2.414.82 0 1.216-.955 1.216-2.469 0-1.458-.368-2.416-1.216-2.416-.701 0-1.218.856-1.218 2.47m3.256-.09c0 2.015-.765 3.126-2.085 3.126-1.17 0-1.972-1.084-1.99-3.045 0-1.997.874-3.082 2.092-3.082 1.254 0 1.983 1.113 1.983 3M31.417 30.789h-.019l-1.041.557-.157-.61 1.309-.693h.692v5.925h-.784zM35.123 33.033c0 1.54.48 2.414 1.217 2.414.822 0 1.217-.955 1.217-2.469 0-1.458-.37-2.416-1.217-2.416-.7 0-1.217.856-1.217 2.47m3.255-.09c0 2.015-.765 3.126-2.084 3.126-1.17 0-1.974-1.084-1.992-3.045 0-1.997.876-3.082 2.094-3.082 1.254 0 1.982 1.113 1.982 3M40.877 30.789h-.02l-1.041.557-.157-.61 1.31-.693h.69v5.925h-.782zM50.335 30.789h-.018l-1.04.557-.158-.61 1.31-.693h.691v5.925h-.785zM54.041 33.033c0 1.54.481 2.414 1.218 2.414.82 0 1.217-.955 1.217-2.469 0-1.458-.369-2.416-1.217-2.416-.701 0-1.218.856-1.218 2.47m3.256-.09c0 2.015-.765 3.126-2.085 3.126-1.17 0-1.972-1.084-1.99-3.045 0-1.997.875-3.082 2.092-3.082 1.254 0 1.983 1.113 1.983 3M59.794 30.789h-.018l-1.041.557-.158-.61 1.31-.693h.692v5.925h-.785zM17.228 40.121h-.019l-1.042.555-.156-.61 1.31-.693h.69v5.925h-.783zM21.958 40.121h-.019l-1.042.555-.157-.61 1.31-.693h.691v5.925h-.783zM26.688 40.121h-.019l-1.043.555-.156-.61 1.31-.693h.69v5.925h-.782zM30.393 42.363c0 1.54.48 2.416 1.218 2.416.82 0 1.216-.958 1.216-2.471 0-1.458-.368-2.416-1.216-2.416-.701 0-1.218.858-1.218 2.471m3.255-.091c0 2.015-.764 3.128-2.084 3.128-1.17 0-1.974-1.087-1.993-3.045 0-1.997.877-3.081 2.096-3.081 1.254 0 1.98 1.11 1.98 2.998M39.852 42.363c0 1.54.48 2.416 1.217 2.416.821 0 1.218-.958 1.218-2.471 0-1.458-.369-2.416-1.218-2.416-.7 0-1.217.858-1.217 2.471m3.256-.091c0 2.015-.765 3.128-2.084 3.128-1.172 0-1.974-1.087-1.992-3.045 0-1.997.876-3.081 2.093-3.081 1.254 0 1.983 1.11 1.983 2.998M49.312 42.363c0 1.54.48 2.416 1.218 2.416.82 0 1.217-.958 1.217-2.471 0-1.458-.369-2.416-1.217-2.416-.701 0-1.218.858-1.218 2.471m3.256-.091c0 2.015-.765 3.128-2.085 3.128-1.171 0-1.973-1.087-1.991-3.045 0-1.997.875-3.081 2.093-3.081 1.254 0 1.983 1.11 1.983 2.998M55.065 40.121h-.019l-1.04.555-.158-.61 1.31-.693h.692v5.925h-.785zM58.771 42.363c0 1.54.48 2.416 1.217 2.416.82 0 1.217-.958 1.217-2.471 0-1.458-.369-2.416-1.217-2.416-.7 0-1.217.858-1.217 2.471m3.255-.091c0 2.015-.765 3.128-2.085 3.128-1.17 0-1.972-1.087-1.99-3.045 0-1.997.875-3.081 2.093-3.081 1.253 0 1.982 1.11 1.982 2.998M22.087 49.38h-.018l-1.043.555-.157-.61 1.31-.693h.692v5.925h-.784zM22.087 58.51h-.018l-1.043.555-.157-.61 1.31-.693h.692v5.925h-.784zM31.417 49.453h-.019l-1.041.555-.157-.61 1.309-.693h.692v5.925h-.784z"/>
        <path fill="#FFF" d="M39.852 51.695c0 1.54.48 2.414 1.217 2.414.821 0 1.218-.956 1.218-2.469 0-1.458-.369-2.415-1.218-2.415-.7 0-1.217.857-1.217 2.47m3.256-.09c0 2.014-.765 3.126-2.084 3.126-1.172 0-1.974-1.085-1.992-3.046 0-1.995.876-3.08 2.093-3.08 1.254 0 1.983 1.112 1.983 3"/>
        <path fill="#1A1F71" d="M50.335 49.453h-.018l-1.04.555-.158-.61 1.31-.693h.691v5.925h-.785z"/>
    </g>
</svg>
