<svg xmlns="http://www.w3.org/2000/svg"
 width="534.000000pt" height="378.000000pt" viewBox="0 0 534.000000 378.000000">
<g transform="translate(0.000000,378.000000) scale(0.100000,-0.100000)"
fill="#1a1f71" stroke="none">
<path d="M2990 3723 c-102 -24 -212 -69 -267 -109 -17 -13 -35 -24 -40 -24
-17 0 -158 -127 -197 -177 -23 -28 -45 -52 -50 -52 -5 -1 -38 21 -75 47 -126
93 -208 122 -346 122 -121 0 -174 -15 -313 -89 -33 -18 -162 -145 -188 -186
-32 -51 -38 -62 -60 -107 -38 -77 -54 -118 -54 -139 0 -11 -5 -30 -12 -42 -6
-12 -14 -58 -17 -102 -6 -74 -8 -80 -29 -83 -13 -2 -41 4 -63 12 -84 34 -236
17 -344 -37 -102 -51 -214 -169 -263 -277 -43 -94 -52 -118 -52 -134 0 -8 -7
-41 -15 -73 -8 -31 -15 -74 -15 -95 0 -32 -4 -40 -26 -48 -14 -6 -36 -10 -48
-10 -73 0 -221 -118 -263 -210 -56 -122 -58 -128 -56 -259 1 -132 10 -170 62
-271 30 -56 114 -138 172 -167 84 -41 131 -44 604 -41 l450 3 5 195 c4 130 10
207 20 230 40 102 118 176 208 195 18 3 37 15 42 25 6 10 10 61 10 112 1 159
30 288 95 423 111 228 313 394 570 470 86 25 335 25 420 0 164 -49 306 -134
418 -250 48 -49 120 -152 149 -210 8 -16 22 -45 31 -63 9 -19 17 -40 17 -47 0
-8 6 -29 14 -47 17 -39 46 -234 49 -333 l2 -70 40 -10 c86 -22 157 -84 198
-173 19 -42 22 -70 27 -247 l5 -200 450 -3 c568 -4 589 0 705 118 51 52 74 88
113 182 21 49 31 197 19 279 -16 109 -89 240 -164 296 -42 31 -125 73 -144 73
-8 0 -19 12 -24 28 -79 218 -205 378 -354 451 -111 54 -133 61 -188 61 -30 0
-61 6 -70 13 -8 6 -21 44 -27 82 -25 143 -30 164 -40 184 -6 11 -11 29 -11 40
0 24 -15 61 -78 191 -82 167 -210 320 -345 411 -32 21 -61 39 -64 39 -4 0 -14
6 -22 13 -9 7 -36 21 -61 31 -25 11 -59 25 -77 32 -17 8 -38 14 -47 14 -8 0
-41 7 -73 15 -73 19 -227 18 -313 -2z"/>
<path d="M2540 2661 c-211 -27 -420 -182 -519 -386 -64 -134 -83 -232 -79
-420 l3 -150 105 -3 c162 -4 147 -23 152 185 5 181 10 205 55 288 42 77 127
157 208 195 79 37 184 47 275 26 131 -29 249 -125 310 -252 l34 -69 4 -183 c5
-213 -10 -194 152 -190 l105 3 3 159 c2 117 -1 174 -13 218 -8 33 -15 66 -15
74 0 7 -16 49 -36 91 -93 200 -240 330 -449 396 -58 19 -216 28 -295 18z"/>
<path d="M1734 1611 c-68 -42 -64 10 -64 -784 0 -712 0 -719 21 -745 11 -15
33 -35 47 -44 25 -17 83 -18 906 -18 873 0 879 0 912 21 68 42 64 -10 64 782
0 799 4 757 -67 791 -30 14 -124 16 -911 16 -846 0 -878 -1 -908 -19z"/>
</g>
</svg>
