<svg xmlns="http://www.w3.org/2000/svg" width="65" height="77" viewBox="0 0 65 77">
    <g fill="#1A1F71" fill-rule="evenodd">
        <path d="M0 5.006c0-1.657 1.34-3 2.998-3h10.045a3.004 3.004 0 0 1 2.999 3v68.192c0 1.657-1.34 3-2.999 3H2.998a3.004 3.004 0 0 1-2.998-3V5.006zm4.01 7.025v8.021h8.021v-8.02h-8.02zm0 42.11v4.01h8.021v-4.01h-8.02zm0 8.02v4.01h8.021v-4.01h-8.02zM20.052 5.006c0-1.657 1.34-3 2.999-3h10.044a3.004 3.004 0 0 1 2.999 3v68.192c0 1.657-1.34 3-2.999 3H23.051a3.004 3.004 0 0 1-2.999-3V5.006zm4.01 7.025v8.021h8.021v-8.02h-8.02zm0 42.11v4.01h8.021v-4.01h-8.02zm0 8.02v4.01h8.021v-4.01h-8.02zM37.442 6.454a2.998 2.998 0 0 1 2.552-3.389l9.947-1.398c1.64-.23 3.157.92 3.387 2.554l9.49 67.528a2.998 2.998 0 0 1-2.552 3.389l-9.946 1.398a3.004 3.004 0 0 1-3.387-2.554l-9.49-67.528zm4.95 6.399l1.116 7.943 7.942-1.117-1.116-7.942-7.943 1.116zm5.86 41.7l.558 3.97 7.943-1.115-.558-3.972-7.943 1.116zm1.116 7.942l.558 3.972 7.943-1.117-.558-3.971-7.943 1.116z"/>
    </g>
</svg>
