<svg xmlns="http://www.w3.org/2000/svg" xmlns:xlink="http://www.w3.org/1999/xlink" width="18" height="18" viewBox="0 0 18 18">
    <defs>
        <path id="b" d="M0 0h637.07v293H0z"/>
        <filter id="a" width="200%" height="200%" x="-50%" y="-50%" filterUnits="objectBoundingBox">
            <feOffset dy="2" in="SourceAlpha" result="shadowOffsetOuter1"/>
            <feGaussianBlur in="shadowOffsetOuter1" result="shadowBlurOuter1" stdDeviation="4.5"/>
            <feColorMatrix in="shadowBlurOuter1" values="0 0 0 0 0 0 0 0 0 0 0 0 0 0 0 0 0 0 0.03 0"/>
        </filter>
    </defs>
    <g fill="none" fill-rule="evenodd">
        <path fill="#F4F8F9" d="M-668-210H772v716H-668z"/>
        <g transform="translate(-552 -98)">
            <use fill="#000" filter="url(#a)" xlink:href="#b"/>
            <use fill="#FFF" xlink:href="#b"/>
        </g>
        <g fill="#1A1F71">
            <path d="M1.8 14.4H0V1.8C0 .81.81 0 1.8 0h12.6v1.8H1.8v12.6zM16.2 3.6H5.4c-.99 0-1.8.81-1.8 1.8v10.8c0 .99.81 1.8 1.8 1.8h10.8c.99 0 1.8-.81 1.8-1.8V5.4c0-.99-.81-1.8-1.8-1.8zm-.9 8.1h-9V9.9h9v1.8zm-3.6 3.6H6.3v-1.8h5.4v1.8zm3.6-7.2h-9V6.3h9v1.8z"/>
        </g>
    </g>
</svg>
