<svg xmlns="http://www.w3.org/2000/svg" width="30" height="36" viewBox="0 0 30 36">
    <g fill="#FFF" fill-rule="evenodd">
        <path d="M0 1.938c0-.552.447-1 .996-1h5.508c.55 0 .996.438.996 1v32.686c0 .553-.447 1.001-.996 1.001H.996a.992.992 0 0 1-.996-1V1.937zm1.875 3.687v3.75h3.75v-3.75h-3.75zm0 19.688v1.875h3.75v-1.875h-3.75zm0 3.75v1.875h3.75v-1.875h-3.75zM9.375 1.938c0-.552.447-1 .996-1h5.508c.55 0 .996.438.996 1v32.686c0 .553-.447 1.001-.996 1.001h-5.508a.992.992 0 0 1-.996-1V1.937zm1.875 3.687v3.75H15v-3.75h-3.75zm0 19.688v1.875H15v-1.875h-3.75zm0 3.75v1.875H15v-1.875h-3.75zM17.45 2.62a.999.999 0 0 1 .846-1.13l5.455-.767a.992.992 0 0 1 1.125.852l4.55 32.368a.999.999 0 0 1-.847 1.13l-5.455.767a.992.992 0 0 1-1.125-.853L17.449 2.62zm2.37 3.39l.521 3.713 3.714-.522-.522-3.714-3.714.522zm2.74 19.495l.26 1.857 3.714-.522-.261-1.857-3.714.522zm.521 3.714l.261 1.856 3.714-.522-.261-1.856-3.714.522z"/>
    </g>
</svg>
