<?xml version="1.0" encoding="UTF-8" standalone="no"?>
<svg width="187px" height="44px" viewBox="0 0 187 44" version="1.1" xmlns="http://www.w3.org/2000/svg" xmlns:xlink="http://www.w3.org/1999/xlink">
    <!-- Generator: Sketch 44.1 (41455) - http://www.bohemiancoding.com/sketch -->
    <title>Group 4</title>
    <desc>Created with Sketch.</desc>
    <defs>
        <linearGradient x1="20.7581791%" y1="81.4515984%" x2="100%" y2="3.11115319%" id="linearGradient-1">
            <stop stop-color="#1A1E5A" offset="0%"></stop>
            <stop stop-color="#132B90" offset="100%"></stop>
        </linearGradient>
        <linearGradient x1="50%" y1="70.1625583%" x2="80.6171077%" y2="27.3273528%" id="linearGradient-2">
            <stop stop-color="#FA9B00" offset="0%"></stop>
            <stop stop-color="#F4CA12" offset="100%"></stop>
        </linearGradient>
        <linearGradient x1="86.3773808%" y1="12.513277%" x2="3.70486115%" y2="94.354075%" id="linearGradient-3">
            <stop stop-color="#FA9C00" offset="0%"></stop>
            <stop stop-color="#F4CA12" offset="100%"></stop>
        </linearGradient>
        <linearGradient x1="15.0396692%" y1="100%" x2="90.6391007%" y2="0%" id="linearGradient-4">
            <stop stop-color="#1A1E5A" offset="0%"></stop>
            <stop stop-color="#132B90" offset="100%"></stop>
        </linearGradient>
        <linearGradient x1="22.8687532%" y1="100%" x2="2712.82636%" y2="0%" id="linearGradient-5">
            <stop stop-color="#FA9B00" offset="0%"></stop>
            <stop stop-color="#F4CA12" offset="100%"></stop>
        </linearGradient>
    </defs>
    <g id="Security-Assessment-Main-Page" stroke="none" stroke-width="1" fill="none" fill-rule="evenodd">
        <g id="Security-Assessment-page---tool-menu" transform="translate(-115.000000, -18.000000)">
            <g id="Top-bar">
                <g id="Logo" transform="translate(115.000000, 18.000000)">
                    <g id="Group-4">
                        <g id="Group-Copy-4">
                            <g id="Page-1">
                                <path d="M40.119493,2.18339001 L38.9443505,2.68967403 C36.8355151,3.59808064 34.5952728,4.05877172 32.2861642,4.05877172 L32.2848513,4.05877172 C25.9477227,4.05877172 21.0421053,0.584303898 20.9937676,0.550138952 L20.3984385,0.118970197 L19.8029899,0.549424702 C19.7540555,0.585018147 14.8755311,4.05877172 8.50999657,4.05877172 C6.20220089,4.05877172 3.96183925,3.59808064 1.85240706,2.68967403 L0.677145159,2.18339001 L0.450733884,3.43999337 C0.397144711,3.7358118 -4.5952418,33.1524251 19.9971761,43.6974891 L20.3984385,43.8696233 L20.7995815,43.6974891 C45.3919994,33.1524251 40.3997322,3.7358118 40.346143,3.43999337 L40.119493,2.18339001 Z" id="Fill-1" fill="#0050B9"></path>
                                <path d="M31.6390321,5.11581371 C21.6888713,14.9311526 14.614981,28.1748901 10.78246,36.5198269 C-2.2122582,23.8752258 1.42261547,3.67826708 1.42261547,3.67826708 C11.3483091,7.95281364 20.3711028,1.42849946 20.3711028,1.42849946 C20.3711028,1.42849946 25.1815964,4.90082454 31.6390321,5.11581371 Z M39.319602,3.67824327 C39.319602,3.67824327 44.5082036,32.4772686 20.3711147,42.8265092 C16.4481246,41.144213 13.3043856,38.9731319 10.7824719,36.5198031 C14.6149929,28.1748663 21.6888832,14.9311288 31.6390441,5.1157899 C34.0274025,5.19554779 36.6397852,4.8323518 39.319602,3.67824327 Z" id="Combined-Shape" fill="url(#linearGradient-1)"></path>
                            </g>
                            <g id="Group" transform="translate(8.341759, 11.178378)">
                                <g id="Group-2" transform="translate(10.392748, 0.000000)">
                                    <g id="Group-Copy-5" transform="translate(0.042362, 0.000000)">
                                        <polygon id="Path-3" fill="url(#linearGradient-2)" points="0 9.92439872 5.48973602 9.92439872 12.7204342 2.72240862 9.90246157 0"></polygon>
                                        <polygon id="Path-3" fill="url(#linearGradient-3)" transform="translate(6.360217, 13.458062) scale(1, -1) translate(-6.360217, -13.458062) " points="0 16.9706818 2.87181179 19.8698408 12.7204342 9.76869172 9.90246157 7.0462831"></polygon>
                                    </g>
                                </g>
                                <g id="Group-2-Copy">
                                    <g id="Group-Copy-5" transform="translate(0.042362, 0.000000)">
                                        <polygon id="Path-3" fill="url(#linearGradient-2)" points="0 9.92439872 5.48973602 9.92439872 12.7204342 2.72240862 9.90246157 0"></polygon>
                                        <polygon id="Path-3" fill="url(#linearGradient-3)" transform="translate(6.360217, 13.458062) scale(1, -1) translate(-6.360217, -13.458062) " points="0 16.9706818 2.87181179 19.8698408 12.7204342 9.76869172 9.90246157 7.0462831"></polygon>
                                    </g>
                                </g>
                            </g>
                        </g>
                        <g id="Group-3" transform="translate(45.760508, 10.227027)">
                            <path d="M16.1373921,26.7639033 C16.1373921,28.7927452 15.3639756,30.3525677 13.8171194,31.4434176 C12.2702632,32.5342675 10.0754326,33.0796843 7.23256176,33.0796843 C4.19459192,33.0796843 1.78376211,32.6141693 0,31.6831254 L0,29.4528002 C2.2854452,30.5922867 4.69627502,31.1620214 7.23256176,31.1620214 C9.47620004,31.1620214 11.1798067,30.7903042 12.3434327,30.0468588 C13.5070588,29.3034133 14.0888631,28.3133255 14.0888631,27.0765657 C14.0888631,25.9370792 13.62551,24.9782574 12.6987898,24.2000715 C11.7720696,23.4218855 10.2496237,22.6576073 8.13140615,21.9072137 C5.85989658,21.0873393 4.26428957,20.3821188 3.34453723,19.7915313 C2.42478489,19.2009438 1.73149713,18.5339373 1.26465314,17.7904918 C0.797809151,17.0470463 0.564390658,16.1403344 0.564390658,15.0703287 C0.564390658,13.3749951 1.27858157,12.0340342 2.70698482,11.0474056 C4.13538807,10.060777 6.13163877,9.56747011 8.6957968,9.56747011 C11.1484697,9.56747011 13.4756869,10.0260371 15.6775183,10.9431848 L14.904094,12.8191593 C12.6743914,11.9020116 10.6049797,11.4434446 8.6957968,11.4434446 C6.84235649,11.4434446 5.37216836,11.749156 4.28518833,12.3605878 C3.19820829,12.9720195 2.65472643,13.8196736 2.65472643,14.9035755 C2.65472643,16.0847505 3.07627326,17.0296764 3.91937957,17.7383814 C4.76248588,18.4470864 6.41035076,19.2391567 8.86302366,20.1146158 C10.911563,20.8511132 12.4026542,21.5146457 13.3363422,22.1052332 C14.2700302,22.6958208 14.9702857,23.3663013 15.4371297,24.1166948 C15.9039737,24.8670884 16.1373921,25.7494824 16.1373921,26.7639033 Z M37.8350774,32.662801 L37.8350774,17.9676672 C37.8350774,15.6886941 37.354305,14.0315999 36.3927458,12.9963347 C35.4311865,11.9610695 33.9400952,11.4434446 31.9194272,11.4434446 C29.2019771,11.4434446 27.2126941,12.1278211 25.9515186,13.4965946 C24.690343,14.865368 24.0597647,17.085249 24.0597647,20.1563041 L24.0597647,32.662801 L21.9903323,32.662801 L21.9903323,0.229285776 L24.0597647,0.229285776 L24.0597647,10.5471457 L23.9552479,13.4444841 L24.1015714,13.4444841 C24.9516456,12.0826588 26.0246739,11.096045 27.3206885,10.4846132 C28.6167032,9.87318143 30.2262456,9.56747011 32.1493641,9.56747011 C37.3055515,9.56747011 39.8836065,12.3258199 39.8836065,17.8426022 L39.8836065,32.662801 L37.8350774,32.662801 Z M49.3110208,32.662801 L47.2415884,32.662801 L47.2415884,10.0051975 L49.3110208,10.0051975 L49.3110208,32.662801 Z M46.9489414,3.71026074 C46.9489414,2.37622774 47.3879075,1.70922124 48.2658529,1.70922124 C48.6978578,1.70922124 49.0357921,1.88292085 49.2796658,2.23032528 C49.5235395,2.57772971 49.6454745,3.07103659 49.6454745,3.71026074 C49.6454745,4.33558871 49.5235395,4.8288956 49.2796658,5.19019621 C49.0357921,5.55149681 48.6978578,5.7321444 48.2658529,5.7321444 C47.3879075,5.7321444 46.9489414,5.05818992 46.9489414,3.71026074 Z M65.3647995,11.7977954 L60.01354,11.7977954 L60.01354,32.662801 L57.9441075,32.662801 L57.9441075,11.7977954 L53.7216293,11.7977954 L53.7216293,10.588834 L57.9441075,9.81760005 L57.9441075,8.06669049 C57.9441075,5.28745506 58.4562347,3.24822166 59.4805043,1.9489291 C60.504774,0.649636536 62.1805097,0 64.5077619,0 C65.7619696,0 67.0161585,0.187595577 68.2703662,0.56279236 L67.789589,2.35539025 C66.6747377,2.00798582 65.5668708,1.83428621 64.4659551,1.83428621 C62.8494207,1.83428621 61.7032314,2.31022314 61.0273528,3.26211127 C60.3514742,4.2139994 60.01354,5.75992592 60.01354,7.8999372 L60.01354,10.0051975 L65.3647995,10.0051975 L65.3647995,11.7977954 Z M75.7537683,31.245398 C77.0637186,31.245398 78.2064241,31.1342303 79.181919,30.9118915 L79.181919,32.5794244 C78.1785528,32.9129326 77.0219119,33.0796843 75.7119616,33.0796843 C73.7052292,33.0796843 72.2245895,32.5446895 71.2699981,31.4746838 C70.3154066,30.4046782 69.8381181,28.723266 69.8381181,26.4303967 L69.8381181,11.7977954 L66.4726775,11.7977954 L66.4726775,10.588834 L69.8381181,9.65084676 L70.883286,4.52318304 L71.9493572,4.52318304 L71.9493572,10.0051975 L78.6175283,10.0051975 L78.6175283,11.7977954 L71.9493572,11.7977954 L71.9493572,26.1385785 C71.9493572,27.8756006 72.2559367,29.1609777 72.8691049,29.9947484 C73.4822732,30.828519 74.443818,31.245398 75.7537683,31.245398 Z" id="shift-left-copy" fill="url(#linearGradient-4)"></path>
                            <polygon id="Path" fill="url(#linearGradient-5)" points="87.1042915 32.6713531 85.0348591 32.6713531 85.0348591 0.237837838 87.1042915 0.237837838"></polygon>
                            <path d="M103.870104,33.0257277 C100.567357,33.0257277 97.9927859,32.0113219 96.1463134,29.9824801 C94.2998409,27.9536382 93.3766185,25.1119126 93.3766185,21.457218 C93.3766185,17.844212 94.2684862,14.9503765 96.0522483,12.7756248 C97.8360104,10.6008731 100.239872,9.51351351 103.263907,9.51351351 C105.93955,9.51351351 108.050768,10.4445434 109.597624,12.3066312 C111.14448,14.1687189 111.917897,16.6977852 111.917897,19.8939059 L111.917897,21.5614388 L95.5505677,21.5614388 C95.578439,24.6741825 96.3065653,27.0503932 97.7349686,28.6901421 C99.1633718,30.329891 101.208397,31.1497531 103.870104,31.1497531 C105.166119,31.1497531 106.30534,31.0594293 107.287803,30.878779 C108.270266,30.6981287 109.514003,30.3090416 111.019052,29.711506 L111.019052,31.5874805 C109.736973,32.1433276 108.552462,32.5219927 107.465482,32.7234873 C106.378502,32.9249819 105.180054,33.0257277 103.870104,33.0257277 Z M103.109561,11.4162162 C100.921665,11.4162162 99.165801,12.1353326 97.841915,13.5735869 C96.5180291,15.0118413 95.7446126,17.0858146 95.5216423,19.7955691 L109.568699,19.7955691 C109.568699,17.1691916 108.997346,15.1160623 107.854623,13.6361194 C106.711901,12.1561765 105.130229,11.4162162 103.109561,11.4162162 Z" id="Combined-Shape" fill="url(#linearGradient-5)"></path>
                            <path d="M126.470027,11.7977954 L121.118767,11.7977954 L121.118767,32.662801 L119.049335,32.662801 L119.049335,11.7977954 L114.826857,11.7977954 L114.826857,10.588834 L119.049335,9.81760005 L119.049335,8.06669049 C119.049335,5.28745506 119.561462,3.24822166 120.585732,1.9489291 C121.610002,0.649636536 123.285737,0 125.612989,0 C126.867197,0 128.121386,0.187595577 129.375594,0.56279236 L128.894817,2.35539025 C127.779965,2.00798582 126.672098,1.83428621 125.571183,1.83428621 C123.954648,1.83428621 122.808459,2.31022314 122.13258,3.26211127 C121.456702,4.2139994 121.118767,5.75992592 121.118767,7.8999372 L121.118767,10.0051975 L126.470027,10.0051975 L126.470027,11.7977954 Z" id="Path" fill="url(#linearGradient-5)"></path>
                            <path d="M136.978091,31.2411339 C138.288041,31.2411339 139.430746,31.1299662 140.406241,30.9076273 L140.406241,32.5751603 C139.402875,32.9086685 138.246234,33.0754201 136.936284,33.0754201 C134.929552,33.0754201 133.448912,32.5404253 132.49432,31.4704197 C131.539729,30.4004141 131.06244,28.7190018 131.06244,26.4261326 L131.06244,11.7935313 L127.697,11.7935313 L127.697,10.5845699 L131.06244,9.64658264 L132.107608,4.51891892 L133.17368,4.51891892 L133.17368,10.0009334 L139.841851,10.0009334 L139.841851,11.7935313 L133.17368,11.7935313 L133.17368,26.1343144 C133.17368,27.8713365 133.480259,29.1567136 134.093427,29.9904842 C134.706595,30.8242549 135.66814,31.2411339 136.978091,31.2411339 Z" id="Path" fill="url(#linearGradient-5)"></path>
                        </g>
                    </g>
                </g>
            </g>
        </g>
    </g>
</svg>