<svg xmlns="http://www.w3.org/2000/svg" width="31" height="33" viewBox="0 0 31 33">
    <defs>
        <linearGradient id="a" x1="100%" x2="0%" y1="0%" y2="100%">
            <stop offset="0%" stop-color="#122D98"/>
            <stop offset="100%" stop-color="#1A1E5A"/>
        </linearGradient>
    </defs>
    <g fill="none" fill-rule="evenodd">
        <path fill="#F4F8F9" d="M-30-244h1440v716H-30z"/>
        <path fill="url(#a)" d="M0 0h90v942H0z" transform="translate(-30 -162)"/>
        <g fill="#FFF">
            <path d="M10.04 2.668V0H1.062C.476 0 0 .477 0 1.065v9.111H2.78V3.733c0-.588.475-1.065 1.062-1.065h6.197zM19.96 2.668V0h8.977C29.524 0 30 .477 30 1.065v9.111H27.22V3.733c0-.588-.475-1.065-1.062-1.065h-6.197zM10.04 29.408v2.668H1.062A1.064 1.064 0 0 1 0 31.011V21.9H2.78v6.443c0 .588.475 1.065 1.062 1.065h6.197zM20 29.408v2.668h8.977c.587 0 1.062-.476 1.062-1.065V21.9H27.26v6.443c0 .588-.476 1.065-1.063 1.065H20z"/>
            <g>
                <path d="M5 5h20v22H5V5zm1.24 1.339v3.073h.46V5.895h-.406l-.766.411.091.363.61-.33h.012zm4.078 1.276c0-1.12-.426-1.78-1.161-1.78-.713 0-1.227.645-1.227 1.83.011 1.162.481 1.807 1.167 1.807.773 0 1.221-.66 1.221-1.857zm1.464-1.276v3.073h.459V5.895h-.406l-.767.411.092.363.61-.33h.012zm2.77 0v3.073h.459V5.895h-.405l-.767.411.091.363.611-.33h.011zm2.77 0v3.073h.46V5.895h-.406l-.766.411.091.363.61-.33h.011zm2.77 0v3.073h.46V5.895h-.405l-.767.411.092.363.61-.33h.01zm4.078 1.276c0-1.12-.426-1.78-1.161-1.78-.713 0-1.226.645-1.226 1.83.01 1.162.48 1.807 1.167 1.807.772 0 1.22-.66 1.22-1.857zM6.24 11.877v3.074h.46v-3.518h-.406l-.766.412.091.363.61-.331h.012zm4.078 1.278c0-1.12-.426-1.781-1.161-1.781-.713 0-1.227.643-1.227 1.83.011 1.163.481 1.806 1.167 1.806.773 0 1.221-.66 1.221-1.855zm2.771 0c0-1.12-.427-1.781-1.162-1.781-.713 0-1.225.643-1.225 1.83.01 1.163.48 1.806 1.166 1.806.772 0 1.221-.66 1.221-1.855zm2.77 0c0-1.12-.427-1.781-1.161-1.781-.714 0-1.226.643-1.226 1.83.01 1.163.48 1.806 1.166 1.806.773 0 1.221-.66 1.221-1.855zm7.005-1.278v3.074h.458v-3.518h-.404l-.768.412.092.363.61-.331h.012zm-12.546 6.817c0-1.12-.426-1.78-1.161-1.78-.713 0-1.227.643-1.227 1.828.011 1.164.481 1.808 1.167 1.808.773 0 1.221-.66 1.221-1.856zm2.771 0c0-1.12-.427-1.78-1.162-1.78-.713 0-1.225.643-1.225 1.828.01 1.164.48 1.808 1.166 1.808.772 0 1.221-.66 1.221-1.856zm2.77 0c0-1.12-.427-1.78-1.161-1.78-.714 0-1.226.643-1.226 1.828.01 1.164.48 1.808 1.166 1.808.773 0 1.221-.66 1.221-1.856zm1.463-1.278v3.074h.46v-3.517h-.406l-.766.411.091.363.61-.33h.011zm4.078 1.278c0-1.12-.426-1.78-1.161-1.78-.714 0-1.227.643-1.227 1.828.01 1.164.482 1.808 1.168 1.808.772 0 1.22-.66 1.22-1.856zm1.464-1.278v3.074h.458v-3.517h-.404l-.768.411.092.363.61-.33h.012zM9.01 22.956v3.073h.459v-3.517h-.405l-.767.41.092.363.61-.33h.01zm2.77 0v3.073h.46v-3.517h-.406l-.767.41.092.363.61-.33h.012zm2.771 0v3.073h.459v-3.517h-.405l-.767.41.091.363.611-.33h.011zm4.077 1.276c0-1.12-.426-1.78-1.16-1.78-.714 0-1.228.644-1.228 1.83.011 1.162.482 1.807 1.168 1.807.773 0 1.22-.66 1.22-1.857zm5.541 0c0-1.12-.426-1.78-1.161-1.78-.713 0-1.226.644-1.226 1.83.01 1.162.48 1.807 1.167 1.807.772 0 1.22-.66 1.22-1.857z"/>
                <path d="M8.411 7.67c0 .914.281 1.434.714 1.434.48 0 .712-.569.712-1.467 0-.865-.215-1.434-.712-1.434-.411 0-.714.509-.714 1.467M22.263 7.67c0 .914.281 1.434.713 1.434.481 0 .714-.569.714-1.467 0-.865-.216-1.434-.714-1.434-.41 0-.713.509-.713 1.467M8.411 13.21c0 .913.281 1.432.714 1.432.48 0 .712-.567.712-1.466 0-.865-.215-1.434-.712-1.434-.411 0-.714.508-.714 1.467M11.182 13.21c0 .913.28 1.432.713 1.432.48 0 .713-.567.713-1.466 0-.865-.216-1.434-.713-1.434-.41 0-.713.508-.713 1.467M13.952 13.21c0 .913.28 1.432.714 1.432.48 0 .712-.567.712-1.466 0-.865-.216-1.434-.712-1.434-.411 0-.714.508-.714 1.467M8.411 18.748c0 .914.281 1.433.714 1.433.48 0 .712-.567.712-1.465 0-.866-.215-1.435-.712-1.435-.411 0-.714.509-.714 1.467M11.182 18.748c0 .914.28 1.433.713 1.433.48 0 .713-.567.713-1.465 0-.866-.216-1.435-.713-1.435-.41 0-.713.509-.713 1.467M13.952 18.748c0 .914.28 1.433.714 1.433.48 0 .712-.567.712-1.465 0-.866-.216-1.435-.712-1.435-.411 0-.714.509-.714 1.467M19.494 18.748c0 .914.28 1.433.712 1.433.481 0 .713-.567.713-1.465 0-.866-.216-1.435-.713-1.435-.41 0-.712.509-.712 1.467M16.723 24.286c0 .914.281 1.434.713 1.434.48 0 .713-.568.713-1.466 0-.866-.216-1.434-.713-1.434-.41 0-.713.509-.713 1.466M22.263 24.286c0 .914.281 1.434.713 1.434.481 0 .714-.568.714-1.466 0-.866-.216-1.434-.714-1.434-.41 0-.713.509-.713 1.466"/>
            </g>
        </g>
    </g>
</svg>
